<?xml version="1.0" encoding="utf-8"?>
<!-- Generator: Adobe Illustrator 24.1.0, SVG Export Plug-In . SVG Version: 6.00 Build 0)  -->
<svg version="1.1" xmlns="http://www.w3.org/2000/svg" xmlns:xlink="http://www.w3.org/1999/xlink" x="0px" y="0px"
	 viewBox="0 0 512 640" style="enable-background:new 0 0 512 640;" xml:space="preserve">
<style type="text/css">
	.st0{fill:#FFF666;}
	.st1{fill:#2B2B70;}
	.st2{font-family:'CharlevoixPro-Bold';}
	.st3{font-size:25.9271px;}
	.st4{fill:none;stroke:#ED4C4C;stroke-width:2.0742;stroke-linecap:round;stroke-miterlimit:10;}
	.st5{fill:#FFFFFF;stroke:#2B2B70;stroke-width:0.5185;stroke-miterlimit:10;}
	.st6{fill:none;stroke:#2B2B70;stroke-width:1.0371;stroke-linecap:round;stroke-linejoin:round;stroke-miterlimit:10;}
	.st7{fill:#ED4C4C;}
	.st8{fill:#5761FF;}
</style>
<g id="Calque_1">
</g>
<g id="Calque_4">
	<g>
		<rect x="24.9" y="34.3" class="st0" width="194.5" height="194.5"/>
		<text transform="matrix(1 0 0 1 65.6851 103.3894)"><tspan x="0" y="0" class="st1 st2 st3">Matthieu</tspan><tspan x="5.8" y="51.9" class="st1 st2 st3">Mathieu</tspan><tspan x="8.6" y="103.7" class="st1 st2 st3">Ma tieu</tspan></text>
		<path class="st4" d="M71.7,109.7c0,0,12.7,7.3,32.8,0"/>
		<path class="st4" d="M108.9,109.7c0,0,28.8,10.9,66.3,0"/>
		<path class="st4" d="M76,160.5c0,0,12.7,7.3,32.8,0"/>
		<path class="st4" d="M114.2,160.5c0,0,23.8,10.6,55.8,0"/>
		<path class="st4" d="M77.8,214.1c0,0,12.7,7.3,32.8,0"/>
		<path class="st4" d="M126.3,214.1c0,0,17.3,8.4,40.3,0"/>
		<g>
			<g>
				<polyline class="st5" points="176.5,246 181.7,251.2 181.7,285.7 78.2,285.7 73,280.6 				"/>
				<polyline class="st5" points="81.3,246 176.5,246 176.5,280.6 73,280.6 73,248.4 				"/>
				<line class="st5" x1="176.5" y1="280.6" x2="181.7" y2="285.7"/>
				<line class="st6" x1="79.2" y1="246" x2="79.2" y2="246"/>
			</g>
			<g>
				<g>
					<text transform="matrix(1 0 0 1 87.2251 272.9087)" class="st1 st2 st3">M041</text>
				</g>
			</g>
		</g>
		<polygon class="st7" points="84.9,255.2 64.7,269.4 64.7,241 		"/>
		<path class="st8" d="M122.2,69.3L122.2,69.3c-8,0-14.5-6.5-14.5-14.5v0c0-8,6.5-14.5,14.5-14.5h0c8,0,14.5,6.5,14.5,14.5v0
			C136.7,62.8,130.2,69.3,122.2,69.3z"/>
	</g>
	<g>
		<rect x="24.9" y="310" class="st0" width="194.5" height="194.5"/>
		<text transform="matrix(1 0 0 1 66.9819 379.1094)"><tspan x="0" y="0" class="st1 st2 st3">Matthias</tspan><tspan x="5.8" y="51.9" class="st1 st2 st3">Mathias</tspan><tspan x="8.6" y="103.7" class="st1 st2 st3">Ma tias</tspan></text>
		<path class="st4" d="M71.7,385.4c0,0,12.7,7.3,32.8,0"/>
		<path class="st4" d="M108.9,385.4c0,0,28.8,10.9,66.3,0"/>
		<path class="st4" d="M76,436.2c0,0,12.7,7.3,32.8,0"/>
		<path class="st4" d="M114.2,436.2c0,0,23.8,10.6,55.8,0"/>
		<path class="st4" d="M77.8,489.8c0,0,12.7,7.3,32.8,0"/>
		<path class="st4" d="M126.3,489.8c0,0,17.3,8.4,40.3,0"/>
		<g>
			<g>
				<polyline class="st5" points="178.7,521.7 183.8,526.9 183.8,561.5 64.8,561.5 59.6,556.3 				"/>
				<polyline class="st5" points="67.9,521.7 178.7,521.7 178.7,556.3 59.6,556.3 59.6,524.1 				"/>
				<line class="st5" x1="178.7" y1="556.3" x2="183.8" y2="561.5"/>
				<line class="st6" x1="65.7" y1="521.7" x2="65.7" y2="521.7"/>
			</g>
			<g>
				<g>
					<text transform="matrix(1 0 0 1 73.8188 548.6287)" class="st1 st2 st3">M0413</text>
				</g>
			</g>
		</g>
		<polygon class="st7" points="71.5,530.9 51.3,545.2 51.3,516.7 		"/>
		<path class="st8" d="M122.2,345L122.2,345c-8,0-14.5-6.5-14.5-14.5v0c0-8,6.5-14.5,14.5-14.5h0c8,0,14.5,6.5,14.5,14.5v0
			C136.7,338.5,130.2,345,122.2,345z"/>
	</g>
	<g>
		<rect x="292" y="32.9" class="st0" width="194.5" height="194.5"/>
		<text transform="matrix(1 0 0 1 340.3901 101.936)"><tspan x="0" y="0" class="st1 st2 st3">Martine</tspan><tspan x="0" y="51.9" class="st1 st2 st3">Martine</tspan><tspan x="2.4" y="103.7" class="st1 st2 st3">Mar tin</tspan></text>
		<path class="st4" d="M344.3,108.2c0,0,19.5,7.3,39.7,0"/>
		<path class="st4" d="M390.9,108.2c0,0,16.3,10,44.6,0"/>
		<path class="st4" d="M343.1,159c0,0,22,7.3,42.1,0"/>
		<path class="st4" d="M391.1,159c0,0,21.2,7.2,45.9,0"/>
		<path class="st4" d="M346.1,212.6c0,0,21.9,7.3,42.1,0"/>
		<path class="st4" d="M404.4,212.6c0,0,12,8.2,30.1,0"/>
		<g>
			<g>
				<polyline class="st5" points="461,244.6 466.2,249.7 466.2,284.3 326.4,284.3 321.2,279.1 				"/>
				<polyline class="st5" points="329.5,244.6 461,244.6 461,279.1 321.2,279.1 321.2,246.9 				"/>
				<line class="st5" x1="461" y1="279.1" x2="466.2" y2="284.3"/>
				<line class="st6" x1="327.3" y1="244.6" x2="327.3" y2="244.6"/>
			</g>
			<g>
				<g>
					<text transform="matrix(1 0 0 1 335.4087 271.4553)" class="st1 st2 st3">M07406</text>
				</g>
			</g>
		</g>
		<polygon class="st7" points="333.1,253.7 312.8,268 312.8,239.5 		"/>
		<path class="st8" d="M389.3,67.8L389.3,67.8c-8,0-14.5-6.5-14.5-14.5v0c0-8,6.5-14.5,14.5-14.5h0c8,0,14.5,6.5,14.5,14.5v0
			C403.8,61.3,397.3,67.8,389.3,67.8z"/>
	</g>
	<g>
		<rect x="292" y="306.7" class="st0" width="194.5" height="194.5"/>
		<text transform="matrix(1 0 0 1 345.6147 375.793)"><tspan x="0" y="0" class="st1 st2 st3">Marion</tspan><tspan x="-10.1" y="51.9" class="st1 st2 st3">Ma ri on</tspan><tspan x="-2.2" y="103.7" class="st1 st2 st3">Ma ri o</tspan></text>
		<path class="st4" d="M350,382.1c0,0,10.6,7.3,30.8,0"/>
		<path class="st4" d="M339.6,433.8c0,0,10.6,7.3,30.8,0"/>
		<path class="st4" d="M384.5,382.1c0,0,6.5,6,15.1,0"/>
		<path class="st4" d="M384.2,433.8c0,0,6.5,6,15.1,0"/>
		<path class="st4" d="M404.2,382.1c0,0,14.2,8.1,26.1,0"/>
		<path class="st4" d="M414.9,433.8c0,0,14.2,8.1,26.1,0"/>
		<path class="st4" d="M346.1,486.5c0,0,13,7.3,33.2,0"/>
		<path class="st4" d="M390,486.5c0,0,6.5,5.8,17.8,0"/>
		<path class="st4" d="M418,486.5c0,0,6.5,5.8,17.8,0"/>
		<g>
			<g>
				<polyline class="st5" points="461,518.4 466.2,523.6 466.2,558.1 326.4,558.1 321.2,553 				"/>
				<polyline class="st5" points="329.5,518.4 461,518.4 461,553 321.2,553 321.2,520.8 				"/>
				<line class="st5" x1="461" y1="553" x2="466.2" y2="558.1"/>
				<line class="st6" x1="327.3" y1="518.4" x2="327.3" y2="518.4"/>
			</g>
			<g>
				<g>
					<text transform="matrix(1 0 0 1 335.4087 545.3123)" class="st1 st2 st3">M07006</text>
				</g>
			</g>
		</g>
		<polygon class="st7" points="333.1,527.6 312.8,541.8 312.8,513.4 		"/>
		<g>
			<g>
				<polyline class="st5" points="451,568 456.2,573.2 456.2,607.7 326.4,607.7 321.2,602.6 				"/>
				<polyline class="st5" points="329.5,568 451,568 451,602.6 321.2,602.6 321.2,570.4 				"/>
				<line class="st5" x1="451" y1="602.6" x2="456.2" y2="607.7"/>
				<line class="st6" x1="327.3" y1="568" x2="327.3" y2="568"/>
			</g>
			<g>
				<g>
					<text transform="matrix(1 0 0 1 336.4868 594.9153)" class="st1 st2 st3">M0700</text>
				</g>
			</g>
		</g>
		<polygon class="st7" points="333.1,577.2 312.8,591.5 312.8,563 		"/>
		<path class="st8" d="M389.3,341.7L389.3,341.7c-8,0-14.5-6.5-14.5-14.5v0c0-8,6.5-14.5,14.5-14.5h0c8,0,14.5,6.5,14.5,14.5v0
			C403.8,335.2,397.3,341.7,389.3,341.7z"/>
		<line class="st4" x1="446.4" y1="468.3" x2="465.7" y2="468.9"/>
		<line class="st4" x1="445.7" y1="477.3" x2="465" y2="478"/>
		<line class="st4" x1="460.2" y1="459.9" x2="450.5" y2="487"/>
	</g>
</g>
</svg>
