<?xml version="1.0" encoding="utf-8"?>
<!-- Generator: Adobe Illustrator 24.1.0, SVG Export Plug-In . SVG Version: 6.00 Build 0)  -->
<svg version="1.1" xmlns="http://www.w3.org/2000/svg" xmlns:xlink="http://www.w3.org/1999/xlink" x="0px" y="0px"
	 viewBox="0 0 512 512" style="enable-background:new 0 0 512 512;" xml:space="preserve">
<style type="text/css">
	.st0{fill:#FFF666;}
	.st1{fill:#5761FF;}
	.st2{fill:none;stroke:#5761FF;stroke-width:3.4956;stroke-miterlimit:10;}
	.st3{fill:#ED4C4C;}
	.st4{opacity:0.1;fill:#5761FF;}
	.st5{opacity:0.2;fill:#5761FF;}
	.st6{opacity:0.3;fill:#5761FF;}
</style>
<g id="Calque_1">
</g>
<g id="Calque_4">
	<g>
		<g>
			<rect x="246.6" y="186" class="st0" width="21.3" height="21.3"/>
			<rect x="211.9" y="301.2" class="st0" width="21.3" height="21.3"/>
			<circle class="st1" cx="256.4" cy="426.7" r="13"/>
			<line class="st2" x1="256.4" y1="426.7" x2="256.4" y2="131.6"/>
			<circle class="st3" cx="256.2" cy="395.3" r="29.3"/>
			<path class="st3" d="M131.1,290.3c-16.2,0-29.3-7.1-29.3-15.9c0,16.2,13.1,29.3,29.3,29.3s29.3-13.1,29.3-29.3
				C160.4,283.2,147.3,290.3,131.1,290.3z"/>
			<polygon class="st2" points="22.1,283.3 254.3,166.8 489.3,278.9 257.1,395.4 			"/>
			<circle class="st1" cx="372.4" cy="338.5" r="13"/>
			<circle class="st1" cx="141" cy="222.8" r="13"/>
			<circle class="st1" cx="140.7" cy="338.4" r="13"/>
			<circle class="st1" cx="256.6" cy="131.6" r="13"/>
			<circle class="st1" cx="373" cy="221.9" r="13"/>
			<line class="st2" x1="140.7" y1="338.4" x2="373" y2="221.9"/>
			<path class="st2" d="M140.7,338.4"/>
			<polyline class="st4" points="140.2,223.2 140.2,74.4 256.7,133 257.8,282.3 140.2,223.2 			"/>
			<path class="st2" d="M372.4,338.5L140.5,222.6"/>
			<polygon class="st5" points="254.3,166.8 22.1,283.3 257.1,395.4 489.3,278.9 			"/>
			<g>
				<path class="st3" d="M131.1,258.6c16.2,0,29.3,7.1,29.3,15.9c0-16.2-13.1-29.3-29.3-29.3s-29.3,13.1-29.3,29.3
					C101.8,265.7,114.9,258.6,131.1,258.6z"/>
				<ellipse class="st3" cx="131.1" cy="274.5" rx="29.3" ry="15.9"/>
			</g>
			<rect x="191.7" y="205.8" class="st0" width="21.3" height="21.3"/>
			<rect x="180.2" y="256.8" class="st0" width="21.3" height="21.3"/>
			<rect x="216.3" y="238.9" class="st0" width="21.3" height="21.3"/>
			<rect x="227" y="284.3" class="st0" width="21.3" height="21.3"/>
			<rect x="265.3" y="315.5" class="st0" width="21.3" height="21.3"/>
			<rect x="224.8" y="333" class="st0" width="21.3" height="21.3"/>
			<rect x="326.7" y="252.3" class="st0" width="21.3" height="21.3"/>
			<rect x="288.4" y="212.1" class="st0" width="21.3" height="21.3"/>
			<g>
				<g>
					<path class="st3" d="M311.8,172.2c0-16.2,8.4-29.3,18.9-29.3c-16.2,0-29.3,13.1-29.3,29.3c0,16.2,13.1,29.3,29.3,29.3
						C320.2,201.6,311.8,188.4,311.8,172.2z"/>
				</g>
				<polyline class="st6" points="373,221.9 373,73.1 256.4,131.6 255.4,281 373,221.9 				"/>
				<path class="st3" d="M330.6,142.9c10.4,0,18.9,13.1,18.9,29.3c0,16.2-8.4,29.3-18.9,29.3c16.2,0,29.3-13.1,29.3-29.3
					C359.9,156.1,346.8,142.9,330.6,142.9z"/>
				<path class="st3" d="M349.5,172.2c0-16.2-8.4-29.3-18.9-29.3s-18.9,13.1-18.9,29.3c0,16.2,8.4,29.3,18.9,29.3
					S349.5,188.4,349.5,172.2z"/>
			</g>
			<rect x="272" y="256.4" class="st0" width="21.3" height="21.3"/>
			<rect x="304.8" y="222.9" class="st0" width="21.3" height="21.3"/>
		</g>
	</g>
</g>
</svg>
