<?xml version="1.0" encoding="utf-8"?>
<!-- Generator: Adobe Illustrator 24.1.0, SVG Export Plug-In . SVG Version: 6.00 Build 0)  -->
<svg version="1.1" xmlns="http://www.w3.org/2000/svg" xmlns:xlink="http://www.w3.org/1999/xlink" x="0px" y="0px"
	 viewBox="0 0 1594 606" style="enable-background:new 0 0 1594 606;" xml:space="preserve">
<style type="text/css">
	.st0{opacity:0.2;fill:#5761FF;}
	.st1{fill:#ED4C4C;}
	.st2{fill:#5761FF;}
	.st3{fill:none;stroke:#5761FF;stroke-width:3.6587;stroke-miterlimit:10;}
	.st4{font-family:'CharlevoixPro-Bold';}
	.st5{font-size:30px;}
	.st6{fill:none;stroke:#5761FF;stroke-width:4.3694;stroke-miterlimit:10;}
	.st7{fill:none;stroke:#ED4C4C;stroke-width:1.6747;stroke-linecap:round;stroke-miterlimit:10;}
	.st8{fill:#2B2B70;}
	.st9{fill:none;stroke:#5761FF;stroke-width:4.2086;stroke-miterlimit:10;}
	.st10{fill:none;stroke:#ED4C4C;stroke-width:7;stroke-linecap:round;stroke-miterlimit:10;}
	.st11{fill:none;stroke:#5761FF;stroke-width:7;stroke-linecap:round;stroke-miterlimit:10;}
	.st12{fill:none;stroke:#2B2B70;stroke-width:7;stroke-linecap:round;stroke-miterlimit:10;}
</style>
<g id="Calque_1">
</g>
<g id="Calque_4">
	<g>
		<path class="st0" d="M381.1,374.6c0,0-50.3,11.4-52.2,51.8c-1.4,28.5,36.7,46.2,36.7,46.2S419.6,433,381.1,374.6z"/>
		<circle class="st1" cx="366.3" cy="424.3" r="10"/>
		<g>
			<polygon class="st0" points="580.8,173.2 337.7,295.1 583.6,412.4 826.7,290.5 			"/>
			<circle class="st2" cx="583" cy="445.2" r="13.6"/>
			<line class="st3" x1="583" y1="445.2" x2="583" y2="136.4"/>
			<polygon class="st3" points="337.7,295.1 582.5,174.5 826.7,290.5 583.6,412.4 			"/>
			<circle class="st2" cx="462.2" cy="231.8" r="13.6"/>
			<circle class="st2" cx="432.7" cy="426.4" r="13.6"/>
			<circle class="st2" cx="700.1" cy="189.8" r="13.6"/>
			<circle class="st2" cx="704.4" cy="353.1" r="13.6"/>
			<circle class="st2" cx="872.4" cy="195.5" r="13.6"/>
			<circle class="st2" cx="206.4" cy="414.3" r="13.6"/>
			<circle class="st2" cx="206.4" cy="305.7" r="13.6"/>
			<line class="st3" x1="432.7" y1="426.4" x2="700.1" y2="189.8"/>
			<path class="st3" d="M704.3,352.9L461.5,231.5"/>
			<line class="st3" x1="206.4" y1="414.3" x2="872.4" y2="195.5"/>
			<text transform="matrix(1 0 0 1 195.9087 285.0527)" class="st4 st5">Tailles</text>
			<ellipse class="st6" cx="206.4" cy="414.3" rx="188.3" ry="108.4"/>
			<ellipse class="st6" cx="432.7" cy="426.4" rx="103.8" ry="59.8"/>
			<line class="st6" x1="206.4" y1="414.3" x2="206.4" y2="305.9"/>
		</g>
		<circle class="st2" cx="582.7" cy="291.1" r="9.4"/>
		<path class="st7" d="M621.5,329.7"/>
		<text transform="matrix(1 0 0 1 572.5239 115.8926)" class="st4 st5">Rouge</text>
		<text transform="matrix(1 0 0 1 716.0029 377.563)" class="st4 st5">Jaune</text>
		<text transform="matrix(1 0 0 1 1133.5786 563.4736)" class="st4 st5">Indexs locaux</text>
		<text transform="matrix(1 0 0 1 193.1655 561.854)" class="st4 st5">Sous Index</text>
		<text transform="matrix(1 0 0 1 1154.6836 59.2974)" class="st1 st4 st5">Typologie A</text>
		<g>
			<text transform="matrix(1 0 0 1 1389.6475 315.2661)" class="st8 st4 st5">Typologie B</text>
		</g>
		<text transform="matrix(1 0 0 1 936.0962 315.2661)" class="st2 st4 st5">Typologie C</text>
		<text transform="matrix(1 0 0 1 568.2568 489.4634)" class="st4 st5">Vert</text>
		<text transform="matrix(1 0 0 1 194.0723 456.1743)" class="st4 st5">Femme</text>
		<text transform="matrix(1 0 0 1 136.9258 179.3823)" class="st4 st5">Jupe rouge 16A.</text>
		<text transform="matrix(1 0 0 1 422.9712 472.0298)" class="st4 st5">Fille</text>
		<text transform="matrix(1 0 0 1 689.0088 170.248)" class="st4 st5">Garçon</text>
		<text transform="matrix(1 0 0 1 858.7119 175.5889)" class="st4 st5">Homme</text>
		<path class="st9" d="M583.2,136.4c87.7,41.3,121.3,131,121.3,216.7c0,85.7-79.7,119.5-121.5,92.1
			c-75.3-49.3-121.4-128-121.4-213.7S520.7,106.9,583.2,136.4z"/>
		<line class="st10" x1="577.6" y1="136.9" x2="390.7" y2="228.9"/>
		<line class="st10" x1="366.4" y1="423.9" x2="367.5" y2="267.8"/>
		<g>
			<circle class="st1" cx="366.6" cy="215.2" r="12.8"/>
			<path class="st1" d="M385.4,250.7c0-10.4-8.4-18.8-18.8-18.8s-18.8,8.4-18.8,18.8c0,0,2.9,5.1,19,5.1
				C383,255.8,385.4,250.7,385.4,250.7z"/>
		</g>
		<g>
			<circle class="st1" cx="1243.7" cy="237" r="42.6"/>
			<path class="st1" d="M1306,354.7c0-34.4-27.9-62.3-62.3-62.3s-62.3,27.9-62.3,62.3c0,0,9.5,17,63.1,17
				C1298.1,371.7,1306,354.7,1306,354.7z"/>
		</g>
		<circle class="st1" cx="583.2" cy="136.4" r="13.6"/>
		<path class="st10" d="M1182.9,473.6c-30-38.1-49.8-103.5-49.8-177.8c0-32.3,3.7-63,10.5-90.4"/>
		<path class="st10" d="M1191.3,483.3c-0.2-0.2-0.4-0.4-0.6-0.6"/>
		<path class="st10" d="M1332.8,422c-12.2,31.7-28.8,56.7-48.1,71.6"/>
		<path class="st10" d="M1161.5,153.4c20.2-43.2,49.6-70.4,82.2-70.4c61.1,0,110.6,95.3,110.6,212.8c0,34.7-4.3,67.5-12,96.5"/>
		<path class="st10" d="M1155.2,168.2c0.2-0.6,0.4-1.1,0.7-1.7"/>
		<path class="st11" d="M1436.2,242.9c0.4,0.5,0.9,1.1,1.3,1.6"/>
		<path class="st11" d="M1353.9,189.8c30.6,10.8,56.2,26,74.1,44.1"/>
		<path class="st11" d="M1036.3,267.9c21.7-55,106.3-96,207.4-96c28.1,0,55,3.2,79.6,9"/>
		<path class="st11" d="M1416.9,367.9c-38.6,31.4-101.8,51.9-173.2,51.9c-94,0-173.8-35.5-201.9-84.8"/>
		<path class="st11" d="M1426,359.8c-0.2,0.2-0.5,0.4-0.7,0.7"/>
		<path class="st12" d="M1109.6,129.8c0.8-0.6,1.6-1.3,2.4-1.9"/>
		<path class="st12" d="M1040.8,227c12-35,33-65.9,60.2-90"/>
		<path class="st12" d="M1046.8,378.5c-0.4-0.9-0.8-1.8-1.1-2.6"/>
		<path class="st12" d="M1455.3,330c-16.5,101.3-104.9,178.6-211.6,178.6c-83.6,0-155.9-47.5-191.3-116.7"/>
		<path class="st12" d="M1359.5,116.7c55.2,35.2,93,94.9,98,163.6"/>
		<path class="st12" d="M1344.8,108.1c1.1,0.6,0.6,0.3,1.6,0.9"/>
	</g>
</g>
</svg>
