<?xml version="1.0" encoding="utf-8"?>
<!-- Generator: Adobe Illustrator 24.1.0, SVG Export Plug-In . SVG Version: 6.00 Build 0)  -->
<svg version="1.1" xmlns="http://www.w3.org/2000/svg" xmlns:xlink="http://www.w3.org/1999/xlink" x="0px" y="0px"
	 viewBox="0 0 512 512" style="enable-background:new 0 0 512 512;" xml:space="preserve">
<style type="text/css">
	.st0{fill:#FFF666;}
	.st1{opacity:0.2;fill:#5761FF;}
	.st2{fill:#5761FF;}
	.st3{fill:none;stroke:#5761FF;stroke-width:3.4956;stroke-miterlimit:10;}
	.st4{fill:none;stroke:#ED4C4C;stroke-width:4;stroke-linecap:round;stroke-miterlimit:10;}
	.st5{fill:#ED4C4C;}
	.st6{fill:none;stroke:#ED4C4C;stroke-width:1.6;stroke-linecap:round;stroke-miterlimit:10;}
</style>
<g id="Calque_1">
</g>
<g id="Calque_4">
	<g>
		<rect x="221" y="317.9" class="st0" width="23" height="23"/>
		<g>
			<g>
				<polygon class="st1" points="254.4,144.1 22.1,260.6 257.1,372.7 489.3,256.2 				"/>
				<circle class="st2" cx="256.5" cy="404" r="13"/>
				<line class="st3" x1="256.5" y1="404" x2="256.5" y2="108.9"/>
				<polygon class="st3" points="22.1,260.6 256.1,145.3 489.3,256.2 257.1,372.7 				"/>
				<circle class="st2" cx="141.1" cy="200.1" r="13"/>
				<circle class="st2" cx="140.7" cy="315.6" r="13"/>
				<circle class="st2" cx="256.7" cy="108.9" r="13"/>
				<circle class="st2" cx="373" cy="199.1" r="13"/>
				<circle class="st2" cx="372.5" cy="315.9" r="13"/>
				<line class="st3" x1="140.7" y1="315.6" x2="373" y2="199.1"/>
				<path class="st3" d="M140.7,315.6"/>
				<path class="st3" d="M372.4,315.7L140.5,199.8"/>
			</g>
		</g>
		<circle class="st2" cx="256.2" cy="256.7" r="9"/>
		<g>
			<path class="st4" d="M337.6,158"/>
			<path class="st4" d="M282.3,181.3"/>
			<circle class="st5" cx="256.2" cy="230.8" r="12.3"/>
			<path class="st5" d="M274.1,264.8c0-9.9-8-18-18-18c-9.9,0-18,8-18,18c0,0,2.7,4.9,18.2,4.9S274.1,264.8,274.1,264.8z"/>
		</g>
		<path class="st6" d="M293.3,293.6"/>
		<rect x="394" y="208.1" class="st0" width="23" height="23"/>
		<rect x="278.6" y="121.9" class="st0" width="23" height="23"/>
		<rect x="91" y="213.7" class="st0" width="23" height="23"/>
		<rect x="353.7" y="265.8" class="st0" width="23" height="23"/>
		<circle class="st5" cx="102.5" cy="225.2" r="3.9"/>
		<circle class="st5" cx="290.2" cy="133.2" r="3.9"/>
		<circle class="st5" cx="405.6" cy="219.7" r="3.9"/>
		<circle class="st5" cx="365.4" cy="277.2" r="3.9"/>
		<circle class="st5" cx="232.4" cy="329.4" r="3.9"/>
	</g>
</g>
</svg>
