<?xml version="1.0" encoding="utf-8"?>
<!-- Generator: Adobe Illustrator 24.1.0, SVG Export Plug-In . SVG Version: 6.00 Build 0)  -->
<svg version="1.1" xmlns="http://www.w3.org/2000/svg" xmlns:xlink="http://www.w3.org/1999/xlink" x="0px" y="0px"
	 viewBox="0 0 512 512" style="enable-background:new 0 0 512 512;" xml:space="preserve">
<style type="text/css">
	.st0{fill:none;stroke:#ED4C4C;stroke-width:4;stroke-linecap:round;stroke-miterlimit:10;}
	.st1{opacity:0.2;fill:#5761FF;}
	.st2{fill:#5761FF;}
	.st3{fill:none;stroke:#5761FF;stroke-width:3.4956;stroke-miterlimit:10;}
	.st4{fill:#FFF666;}
	.st5{fill:none;stroke:#FFF666;stroke-width:4;stroke-linecap:round;stroke-linejoin:round;stroke-miterlimit:10;}
	.st6{fill:#2B2B70;}
	.st7{font-family:'CharlevoixPro-Bold';}
	.st8{font-size:24px;}
	.st9{fill:#ED4C4C;}
	.st10{fill:none;stroke:#ED4C4C;stroke-width:1.6;stroke-linecap:round;stroke-miterlimit:10;}
</style>
<g id="Calque_1">
</g>
<g id="Calque_4">
	<g>
		<line class="st0" x1="340.9" y1="99.4" x2="343.5" y2="152.4"/>
		<line class="st0" x1="337.3" y1="158.1" x2="392.6" y2="134.7"/>
		<g>
			<g>
				<polygon class="st1" points="254.4,144.1 22.1,260.6 257.1,372.7 489.3,256.2 				"/>
				<circle class="st2" cx="256.5" cy="404" r="13"/>
				<line class="st3" x1="256.5" y1="404" x2="256.5" y2="108.9"/>
				<polygon class="st3" points="22.1,260.6 256.1,145.3 489.3,256.2 257.1,372.7 				"/>
				<circle class="st2" cx="372.4" cy="315.7" r="13"/>
				<circle class="st2" cx="141.1" cy="200.1" r="13"/>
				<circle class="st2" cx="140.7" cy="315.6" r="13"/>
				<circle class="st2" cx="256.7" cy="108.9" r="13"/>
				<circle class="st2" cx="373" cy="199.1" r="13"/>
				<line class="st3" x1="140.7" y1="315.6" x2="373" y2="199.1"/>
				<path class="st3" d="M140.7,315.6"/>
				<path class="st3" d="M372.4,315.7L140.5,199.8"/>
			</g>
		</g>
		<circle class="st4" cx="342.5" cy="156.5" r="9"/>
		<polyline class="st5" points="283.3,180.2 256.7,255.9 342.5,156.5 		"/>
		<line class="st0" x1="282.3" y1="181.3" x2="337.6" y2="158"/>
		<circle class="st4" cx="256.2" cy="256.7" r="9"/>
		<text transform="matrix(1 0 0 1 246.2798 180.4141)" class="st6 st7 st8">A</text>
		<text transform="matrix(1 0 0 1 319.166 150.1226)" class="st6 st7 st8">B</text>
		<text transform="matrix(1 0 0 1 356.0898 247.1104)" class="st6 st7 st8">C</text>
		<text transform="matrix(1 0 0 1 237.9971 277.2969)" class="st6 st7 st8">O</text>
		<circle class="st9" cx="325" cy="190.5" r="6.7"/>
		<line class="st0" x1="243.9" y1="137.5" x2="287.1" y2="183.3"/>
		<line class="st0" x1="343.8" y1="162.1" x2="350.3" y2="287.6"/>
		<line class="st5" x1="346.7" y1="246.8" x2="256.2" y2="256.7"/>
		<line class="st10" x1="315.7" y1="166.9" x2="345.3" y2="241"/>
		<circle class="st4" cx="283.3" cy="180.2" r="9"/>
		<line class="st0" x1="223.4" y1="205.2" x2="278.6" y2="181.9"/>
		<line class="st0" x1="287.8" y1="183.6" x2="381.2" y2="282.6"/>
		<circle class="st4" cx="346.7" cy="246.8" r="9"/>
		<line class="st0" x1="348.6" y1="253.8" x2="350.3" y2="287.6"/>
		<line class="st10" x1="345.3" y1="194.9" x2="289" y2="180.6"/>
	</g>
</g>
</svg>
