<?xml version="1.0" encoding="utf-8"?>
<!-- Generator: Adobe Illustrator 24.1.0, SVG Export Plug-In . SVG Version: 6.00 Build 0)  -->
<svg version="1.1" xmlns="http://www.w3.org/2000/svg" xmlns:xlink="http://www.w3.org/1999/xlink" x="0px" y="0px"
	 viewBox="0 0 512 512" style="enable-background:new 0 0 512 512;" xml:space="preserve">
<style type="text/css">
	.st0{opacity:0.2;fill:#5761FF;}
	.st1{fill:#5761FF;}
	.st2{fill:none;stroke:#5761FF;stroke-width:3.4956;stroke-miterlimit:10;}
	.st3{fill:#FFF666;}
	.st4{fill:none;stroke:#FFF666;stroke-width:4;stroke-linecap:round;stroke-linejoin:round;stroke-miterlimit:10;}
	.st5{fill:none;stroke:#ED4C4C;stroke-width:4;stroke-linecap:round;stroke-miterlimit:10;}
	.st6{fill:#2B2B70;}
	.st7{font-family:'CharlevoixPro-Bold';}
	.st8{font-size:24px;}
	.st9{fill:#ED4C4C;}
	.st10{fill:none;stroke:#ED4C4C;stroke-width:1.6;stroke-linecap:round;stroke-miterlimit:10;}
</style>
<g id="Calque_1">
</g>
<g id="Calque_4">
	<g>
		<g>
			<g>
				<polygon class="st0" points="254.4,144.1 22.1,260.6 257.1,372.7 489.3,256.2 				"/>
				<circle class="st1" cx="256.5" cy="404" r="13"/>
				<line class="st2" x1="256.5" y1="404" x2="256.5" y2="108.9"/>
				<polygon class="st2" points="22.1,260.6 256.1,145.3 489.3,256.2 257.1,372.7 				"/>
				<circle class="st1" cx="372.4" cy="315.7" r="13"/>
				<circle class="st1" cx="141.1" cy="200.1" r="13"/>
				<circle class="st1" cx="140.7" cy="315.6" r="13"/>
				<circle class="st1" cx="256.7" cy="108.9" r="13"/>
				<circle class="st1" cx="373" cy="199.1" r="13"/>
				<line class="st2" x1="140.7" y1="315.6" x2="373" y2="199.1"/>
				<path class="st2" d="M140.7,315.6"/>
				<path class="st2" d="M372.4,315.7L140.5,199.8"/>
			</g>
		</g>
		<circle class="st3" cx="342.5" cy="156.5" r="9"/>
		<polyline class="st4" points="283.3,180.2 256.7,255.9 342.5,156.5 		"/>
		<line class="st5" x1="282.3" y1="181.3" x2="337.6" y2="158"/>
		<circle class="st3" cx="256.2" cy="256.7" r="9"/>
		<text transform="matrix(1 0 0 1 282.2529 138.8184)" class="st6 st7 st8">[A,B,C,...]</text>
		<text transform="matrix(1 0 0 1 237.9971 277.2969)" class="st6 st7 st8">O</text>
		<circle class="st9" cx="331.3" cy="205.8" r="6.7"/>
		<polyline class="st4" points="346.7,246.8 256.2,256.7 290.7,299.9 		"/>
		<circle class="st3" cx="283.3" cy="180.2" r="9"/>
		<circle class="st3" cx="383.5" cy="208.3" r="9"/>
		<line class="st4" x1="383.5" y1="208.3" x2="256.2" y2="256.7"/>
		<line class="st5" x1="379.3" y1="203.2" x2="347.4" y2="160.7"/>
		<line class="st5" x1="289.6" y1="296.1" x2="282.8" y2="185.7"/>
		<line class="st5" x1="380.3" y1="211.9" x2="351" y2="242.7"/>
		<circle class="st3" cx="346.7" cy="246.8" r="9"/>
		<line class="st5" x1="343.5" y1="249.8" x2="295.6" y2="297.7"/>
		<circle class="st3" cx="290.7" cy="299.9" r="9"/>
		<polyline class="st10" points="379,207.6 331.3,205.8 287.8,182.8 		"/>
		<polyline class="st10" points="341.7,159.4 331.3,205.8 344.3,240.3 		"/>
		<line class="st10" x1="293.3" y1="293.6" x2="331.3" y2="205.8"/>
	</g>
</g>
</svg>
