<?xml version="1.0" encoding="utf-8"?>
<!-- Generator: Adobe Illustrator 24.1.0, SVG Export Plug-In . SVG Version: 6.00 Build 0)  -->
<svg version="1.1" xmlns="http://www.w3.org/2000/svg" xmlns:xlink="http://www.w3.org/1999/xlink" x="0px" y="0px"
	 viewBox="0 0 512 512" style="enable-background:new 0 0 512 512;" xml:space="preserve">
<style type="text/css">
	.st0{fill:none;stroke:#5761FF;stroke-width:4.3694;stroke-miterlimit:10;}
	.st1{fill:#5761FF;}
	.st2{fill:none;stroke:#5761FF;stroke-width:5.1094;stroke-miterlimit:10;}
	.st3{opacity:0.2;fill:#5761FF;}
	.st4{fill:#FFF666;}
</style>
<g id="Calque_1">
</g>
<g id="Calque_4">
	<g>
		<g>
			<line class="st0" x1="256.2" y1="439.9" x2="256.2" y2="71.1"/>
			<circle class="st1" cx="401.1" cy="329.7" r="16.3"/>
			<circle class="st1" cx="256.2" cy="439.9" r="16.3"/>
			<circle class="st1" cx="111.9" cy="185.1" r="16.3"/>
			<circle class="st1" cx="111.5" cy="329.5" r="16.3"/>
			<circle class="st1" cx="256.4" cy="71.1" r="16.3"/>
			<circle class="st1" cx="401.8" cy="183.9" r="16.3"/>
			<line class="st0" x1="111.5" y1="329.5" x2="401.8" y2="183.9"/>
			<path class="st0" d="M401.1,329.7L111.2,184.7"/>
		</g>
		<ellipse class="st0" cx="255.7" cy="257.7" rx="188.3" ry="108.4"/>
		<path class="st2" d="M254.7,69.4c106.5,50.2,146.4,156.3,146.4,260.2c0,104-95.7,149.5-146.4,116.3
			c-91.4-59.9-143.5-157.2-143.5-261.2S178.9,33.7,254.7,69.4z"/>
		<path class="st2" d="M257.5,69.4C151,119.6,111.2,225.7,111.2,329.7s92,146.4,146.4,116.3c95.6-53,143.5-157.2,143.5-261.2
			C401.1,80.8,333.4,33.7,257.5,69.4z"/>
		<path class="st3" d="M111.2,329.7c0,0,133.2,80.7,289.9,0c0,0,26.6-160.3-143.5-260.2C257.5,69.4,112.6,127.4,111.2,329.7z"/>
		<circle class="st4" cx="255.7" cy="257.7" r="28"/>
	</g>
</g>
</svg>
