<?xml version="1.0" encoding="utf-8"?>
<!-- Generator: Adobe Illustrator 24.1.0, SVG Export Plug-In . SVG Version: 6.00 Build 0)  -->
<svg version="1.1" xmlns="http://www.w3.org/2000/svg" xmlns:xlink="http://www.w3.org/1999/xlink" x="0px" y="0px"
	 viewBox="0 0 1594 606" style="enable-background:new 0 0 1594 606;" xml:space="preserve">
<style type="text/css">
	.st0{fill:#2B2B70;}
</style>
<g id="Calque_1">
</g>
<g id="Calque_4">
	<g>
		<g>
			<path class="st0" d="M568,200.8c-22.6-0.4-45.1-0.9-67.7-0.7c-2.3,0-4.4,2.9-2.9,5c19.9,26.7,36.1,56.3,58.5,81.2
				c-0.2-1.3-0.3-2.7-0.5-4c-22.8,32.3-44.5,65.4-65.1,99.1c-1.4,2.2,0.4,4.9,2.9,5c25.7,1.1,51.5,1.4,77.2,0.8
				c4.3-0.1,4.3-6.7,0-6.6c-25.7,0.6-51.5,0.3-77.2-0.8c1,1.7,1.9,3.3,2.9,5c20.6-33.7,42.3-66.8,65.1-99.1c0.9-1.2,0.4-3-0.5-4
				c-22-24.5-37.9-53.5-57.5-79.8c-1,1.7-1.9,3.3-2.9,5c22.6-0.2,45.1,0.3,67.7,0.7C572.2,207.5,572.2,200.9,568,200.8L568,200.8z"
				/>
		</g>
	</g>
	<g>
		<g>
			<path class="st0" d="M523.5,184.6c-0.2-4.7-0.1-9.4,0.3-14c-1.9,0.8-3.8,1.6-5.7,2.3c5.2,4.7,10,9.7,14.4,15.1
				c1.6,1.9,5,0.8,5.5-1.5c1.6-7.2,2.6-14.4,3-21.8c0.2-4.3-6.4-4.3-6.6,0c-0.4,6.7-1.3,13.4-2.8,20c1.8-0.5,3.7-1,5.5-1.5
				c-4.5-5.4-9.3-10.4-14.4-15.1c-2.2-2-5.4-0.5-5.7,2.3c-0.4,4.7-0.4,9.4-0.3,14C517,188.9,523.6,188.9,523.5,184.6L523.5,184.6z"
				/>
		</g>
	</g>
	<g>
		<g>
			<path class="st0" d="M511.9,405.5c4.3,0,4.3-6.6,0-6.6C507.7,398.9,507.7,405.5,511.9,405.5L511.9,405.5z"/>
		</g>
	</g>
	<g>
		<g>
			<path class="st0" d="M508.6,411c0,3.9,0,7.8,0,11.7c0,4.3,6.6,4.3,6.6,0c0-3.9,0-7.8,0-11.7C515.3,406.7,508.6,406.7,508.6,411
				L508.6,411z"/>
		</g>
	</g>
	<g>
		<g>
			<path class="st0" d="M521.9,417.8c3.1,0,6.2,0,9.3,0c4.3,0,4.3-6.6,0-6.6c-3.1,0-6.2,0-9.3,0
				C517.6,411.1,517.6,417.8,521.9,417.8L521.9,417.8z"/>
		</g>
	</g>
	<g>
		<g>
			<path class="st0" d="M522.4,426c2.3,0,4.7,0,7,0c4.3,0,4.3-6.6,0-6.6c-2.3,0-4.7,0-7,0C518.2,419.3,518.2,426,522.4,426
				L522.4,426z"/>
		</g>
	</g>
	<g>
		<g>
			<path class="st0" d="M545.5,397.3c-6.7,1.4-6.6,10.7-6.6,16c0.1,5.5,1.9,13.5,9,12.7c7.2-0.8,8.8-9.9,9-15.7
				c0.2-6.4-3.5-12.9-10.5-12.9c-4.3,0-4.3,6.6,0,6.6c3.3,0,3.9,3.7,3.9,6.3c0,1.9-0.6,9.1-3.1,8.2c-2.2-0.8-1.6-4.6-1.6-6.6
				c0-1.4-0.2-7.8,1.7-8.1C551.4,402.9,549.7,396.4,545.5,397.3L545.5,397.3z"/>
		</g>
	</g>
	<g>
		<g>
			<path class="st0" d="M593.3,282.2c3.1,9.6,7.9,18.2,14.2,26c1.8,2.2,4.7,0.6,5.5-1.5c1-2.4,2-4.7,2.9-7.1
				c0.6-1.3,1.6-5.9,2.9-6.6c-0.9,0.1-1.7,0.2-2.6,0.3c0.9,0.3,4.1,4.1,5.3,5.3c2.3,2.2,4.6,4.5,6.9,6.7c1.4,1.4,4.3,1.3,5.2-0.7
				c3.7-8.5,7.4-17,11.1-25.5c1.7-3.9-4-7.3-5.7-3.4c-3.7,8.5-7.4,17-11.1,25.5c1.7-0.2,3.5-0.4,5.2-0.7c-3.2-3.1-6.4-6.3-9.6-9.4
				c-1.8-1.8-3.9-4.7-6.8-4.3c-2.7,0.3-3.7,2.6-4.6,4.8c-1.9,4.4-3.7,8.8-5.5,13.3c1.8-0.5,3.7-1,5.5-1.5
				c-5.6-6.9-9.8-14.6-12.5-23.1C598.3,276.4,591.9,278.1,593.3,282.2L593.3,282.2z"/>
		</g>
	</g>
	<g>
		<g>
			<path class="st0" d="M658.8,335.6c0.1-10.3,0.2-20.6,0.3-30.8c-1.9,0.8-3.8,1.6-5.7,2.3c9.9,8.7,19.9,17.4,29.8,26.1
				c2.3,2,5.4,0.5,5.7-2.3c1-9.3,1.2-18.5,0.7-27.8c-0.2-4.3-6.9-4.3-6.6,0c0.5,9.3,0.2,18.6-0.7,27.8c1.9-0.8,3.8-1.6,5.7-2.3
				c-9.9-8.7-19.9-17.4-29.8-26.1c-2.1-1.9-5.6-0.7-5.7,2.3c-0.1,10.3-0.2,20.6-0.3,30.8C652.1,339.8,658.7,339.8,658.8,335.6
				L658.8,335.6z"/>
		</g>
	</g>
	<g>
		<g>
			<path class="st0" d="M695.6,317.3c0,4.5,0,9,0,13.4c0,4.3,6.6,4.3,6.6,0c0-4.5,0-9,0-13.4C702.2,313.1,695.6,313.1,695.6,317.3
				L695.6,317.3z"/>
		</g>
	</g>
	<g>
		<g>
			<path class="st0" d="M698.1,308.7c4.3,0,4.3-6.6,0-6.6C693.9,302.1,693.9,308.7,698.1,308.7L698.1,308.7z"/>
		</g>
	</g>
	<g>
		<g>
			<path class="st0" d="M1151,277.7c4.3,0,4.3-6.6,0-6.6C1146.8,271.1,1146.8,277.7,1151,277.7L1151,277.7z"/>
		</g>
	</g>
	<g>
		<g>
			<path class="st0" d="M1147.7,286.4c0,3.7,0,7.5,0,11.2c0,4.3,6.6,4.3,6.6,0c0-3.7,0-7.5,0-11.2
				C1154.4,282.1,1147.7,282.1,1147.7,286.4L1147.7,286.4z"/>
		</g>
	</g>
	<g>
		<g>
			<path class="st0" d="M1123.8,299.8c0.1-8.9-0.2-17.9-0.1-26.8c-1.9,0.8-3.8,1.6-5.7,2.3c7.6,6.4,9.8,17.5,17.5,23.9
				c1.7,1.4,5.1,1.2,5.5-1.5c1.5-8.8,1.2-18.7-0.3-27.5c-0.7-4.2-7.1-2.4-6.4,1.8c1.3,7.5,1.6,16.5,0.3,24c1.8-0.5,3.7-1,5.5-1.5
				c-7.6-6.4-9.8-17.5-17.5-23.9c-2.1-1.8-5.6-0.7-5.7,2.3c-0.1,8.9,0.2,17.9,0.1,26.8C1117.2,304.1,1123.8,304.1,1123.8,299.8
				L1123.8,299.8z"/>
		</g>
	</g>
	<g>
		<g>
			<path class="st0" d="M1198.1,279c0,7,0,13.9,0,20.9c0,4.3,6.6,4.3,6.6,0c0-7,0-13.9,0-20.9C1204.7,274.7,1198.1,274.7,1198.1,279
				L1198.1,279z"/>
		</g>
	</g>
	<g>
		<g>
			<path class="st0" d="M1191.7,292.7c7,0.3,14,0,20.9-0.8c4.2-0.5,4.2-7.1,0-6.6c-7,0.8-13.9,1.1-20.9,0.8
				C1187.4,285.9,1187.4,292.5,1191.7,292.7L1191.7,292.7z"/>
		</g>
	</g>
	<g>
		<g>
			<path class="st0" d="M1234.9,301c0-9.2,0-18.4,0.1-27.6c-1.9,0.8-3.8,1.6-5.7,2.3c6.3,7.9,12.7,15.8,19,23.7
				c1.7,2.2,5.9,0.4,5.7-2.3c-1-9.9-1.6-19.7-1.8-29.6c-0.1-4.3-6.7-4.3-6.6,0c0.2,9.9,0.8,19.8,1.8,29.6c1.9-0.8,3.8-1.6,5.7-2.3
				c-6.3-7.9-12.7-15.8-19-23.7c-1.9-2.3-5.7-0.3-5.7,2.3c0,9.2,0,18.4-0.1,27.6C1228.2,305.3,1234.9,305.3,1234.9,301L1234.9,301z"
				/>
		</g>
	</g>
	<g>
		<g>
			<path class="st0" d="M1261.2,289.7c0,3.2,0,6.5,0,9.7c0,4.3,6.6,4.3,6.6,0c0-3.2,0-6.5,0-9.7
				C1267.8,285.5,1261.2,285.5,1261.2,289.7L1261.2,289.7z"/>
		</g>
	</g>
	<g>
		<g>
			<path class="st0" d="M1264.5,284.1c4.3,0,4.3-6.6,0-6.6C1260.2,277.5,1260.2,284.1,1264.5,284.1L1264.5,284.1z"/>
		</g>
	</g>
	<g>
		<g>
			<path class="st0" d="M1097.7,253.3c-11.5,21.2-15.3,47.4-1.4,68.4c2.3,3.6,8.1,0.2,5.7-3.4c-12.6-19.1-9-42.6,1.4-61.7
				C1105.5,252.9,1099.7,249.5,1097.7,253.3L1097.7,253.3z"/>
		</g>
	</g>
	<g>
		<g>
			<path class="st0" d="M1315,256.6c9.5,4.2,9.7,17.7,10.3,26.6c0.7,9.9-0.2,20.2-7.1,27.9c-2.8,3.2,1.8,7.9,4.7,4.7
				c8.6-9.6,10-22.2,8.9-34.5c-1-10.9-2-25.3-13.5-30.5C1314.5,249.1,1311.1,254.8,1315,256.6L1315,256.6z"/>
		</g>
	</g>
	<g>
		<g>
			<path class="st0" d="M1339.6,261.5c0.8-1.9,3.5-5.4,5.9-3.1c1.7,1.6-0.6,3.6-1.8,4.7c-2.8,2.8-5.3,5.3-5.5,9.5
				c-0.1,1.9,1.6,3.2,3.3,3.3c3.1,0.1,6.2,0.3,9.3,0.4c4.3,0.2,4.3-6.4,0-6.6c-3.1-0.1-6.2-0.3-9.3-0.4c1.1,1.1,2.2,2.2,3.3,3.3
				c0.1-2.8,4.2-5.2,5.8-7.3c2-2.7,2.9-6.2,1.2-9.4c-4.3-8.1-14.8-4.8-18,2.3C1332.1,262,1337.9,265.4,1339.6,261.5L1339.6,261.5z"
				/>
		</g>
	</g>
	<g>
		<g>
			<path class="st0" d="M1183.8,353.2c5.4,10.1,11.6,19.6,18.7,28.6c1.2,1.6,4.4,1.2,5.2-0.7c2.5-5.6,5.2-11.1,8.3-16.5
				c-1.7,0.2-3.5,0.4-5.2,0.7c4.4,4.7,8.8,9.5,13.2,14.2c1.6,1.7,4,1,5.2-0.7c6.6-9.1,11.4-19.1,14.5-29.9c1.2-4.1-5.2-5.9-6.4-1.8
				c-2.9,10.3-7.5,19.7-13.8,28.3c1.7-0.2,3.5-0.4,5.2-0.7c-4.4-4.7-8.8-9.5-13.2-14.2c-1.5-1.6-4.2-1.1-5.2,0.7
				c-3.1,5.3-5.8,10.8-8.3,16.5c1.7-0.2,3.5-0.4,5.2-0.7c-6.7-8.5-12.5-17.7-17.6-27.2C1187.6,346.1,1181.8,349.5,1183.8,353.2
				L1183.8,353.2z"/>
		</g>
	</g>
	<g>
		<g>
			<path class="st0" d="M719.5,299.8c8.3,0,16.6,0,24.8,0c4.3,0,4.3-6.6,0-6.6c-8.3,0-16.6,0-24.8,0
				C715.2,293.2,715.2,299.8,719.5,299.8L719.5,299.8z"/>
		</g>
	</g>
	<g>
		<g>
			<path class="st0" d="M720.2,319.7c7.1,0,14.2,0,21.3,0c4.3,0,4.3-6.6,0-6.6c-7.1,0-14.2,0-21.3,0
				C715.9,313,715.9,319.7,720.2,319.7L720.2,319.7z"/>
		</g>
	</g>
	<g>
		<g>
			<path class="st0" d="M740.3,284.1c3.3,3.5,6.5,7.1,9.6,10.8c1.5,1.8,3.1,3.7,4.6,5.6c2,2.6,3.4,2.7,1.9,5.3
				c-4.8,8.8-10.7,17.2-15.9,25.7c-2.3,3.6,3.5,7,5.7,3.4c3.3-5.4,6.6-10.7,10-16.1c1.7-2.7,3.3-5.4,5-8c1.2-1.9,2.9-3.9,3-6.2
				c0.2-3.9-4.4-8.1-6.7-10.9c-4-4.9-8.2-9.7-12.5-14.3C742.1,276.3,737.4,281,740.3,284.1L740.3,284.1z"/>
		</g>
	</g>
	<g>
		<g>
			<path class="st0" d="M880.2,236.5c-18.7-1.2-37.3,2.4-56,1c-3.1-0.2-4.1,3.7-2.3,5.7c8,8.9,15.9,17.7,23.9,26.6
				c3.8,4.2,8.3,8.3,11.6,12.9c1.7,2.3-0.2,3.6-1.6,5.7c-1.7,2.5-3.4,5-5,7.5c-11.8,18.5-21.5,38.3-29.1,59c-0.7,2,1.2,4.3,3.2,4.2
				c17.9-0.8,35.8-0.8,53.6,0.1c4.3,0.2,4.3-6.4,0-6.6c-17.9-0.9-35.8-1-53.6-0.1c1.1,1.4,2.1,2.8,3.2,4.2
				c8.5-22.9,19.7-44.7,33.4-64.9c2.4-3.4,5.2-6.9,2.8-11.1c-2.7-4.6-7.7-8.8-11.2-12.7c-8.8-9.8-17.7-19.6-26.5-29.5
				c-0.8,1.9-1.6,3.8-2.3,5.7c18.7,1.5,37.3-2.2,56-1C884.5,243.4,884.4,236.8,880.2,236.5L880.2,236.5z"/>
		</g>
	</g>
	<g>
		<g>
			<path class="st0" d="M833.4,223.3c0-7,0.1-14.1,0.1-21.1c-1.7,1-3.3,1.9-5,2.9c5.5,2.4,8.5,7.4,12,11.9c2.2,2.9,5.7,8.3,9.9,8.1
				c1.1-0.1,2.3-0.6,2.9-1.6c1.9-3.7,1.9-9,2.2-13.1c0.4-5.5,0.3-11-0.1-16.6c-0.3-4.2-7-4.3-6.6,0c0.3,4.2,0.5,8.4,0.3,12.7
				c-0.1,3.9,0.2,10.2-1.5,13.6c1-0.5,1.9-1.1,2.9-1.6c-0.2,0-3.4-3.8-4-4.6c-1.6-2-3-4.1-4.6-6c-2.8-3.5-5.8-6.6-10-8.5
				c-2.2-1-5,0.1-5,2.9c0,7-0.1,14.1-0.1,21.1C826.7,227.6,833.4,227.6,833.4,223.3L833.4,223.3z"/>
		</g>
	</g>
	<g>
		<g>
			<path class="st0" d="M863.1,216c0,2.2,0,4.4,0,6.6c0,4.3,6.6,4.3,6.6,0c0-2.2,0-4.4,0-6.6C869.7,211.7,863.1,211.7,863.1,216
				L863.1,216z"/>
		</g>
	</g>
	<g>
		<g>
			<path class="st0" d="M865.3,210.5c4.3,0,4.3-6.6,0-6.6C861,203.9,861,210.5,865.3,210.5L865.3,210.5z"/>
		</g>
	</g>
	<g>
		<g>
			<path class="st0" d="M812.2,181.9c-9.3,1.2-18.6,2.4-28,3.6c-1.8,0.2-3.4,1.3-3.3,3.3c1.5,73.3,4.4,146.6,8.6,219.7
				c0.1,1.8,1.4,3.3,3.3,3.3c7.8,0,15.6,0,23.4,0.1c4.3,0,4.3-6.6,0-6.6c-7.8,0-15.6,0-23.4-0.1c1.1,1.1,2.2,2.2,3.3,3.3
				c-4.2-73.2-7-146.5-8.6-219.7c-1.1,1.1-2.2,2.2-3.3,3.3c9.3-1.2,18.6-2.4,28-3.6C816.4,188,816.4,181.4,812.2,181.9L812.2,181.9z
				"/>
		</g>
	</g>
	<g>
		<g>
			<path class="st0" d="M1408.6,179.5c9.3,1.2,18.6,2.4,28,3.6c-1.1-1.1-2.2-2.2-3.3-3.3c-1.5,73.3-4.4,146.6-8.6,219.7
				c1.1-1.1,2.2-2.2,3.3-3.3c-7.8,0-15.6,0-23.4,0.1c-4.3,0-4.3,6.7,0,6.6c7.8,0,15.6,0,23.4-0.1c1.9,0,3.2-1.5,3.3-3.3
				c4.2-73.2,7-146.5,8.6-219.7c0-2-1.6-3.1-3.3-3.3c-9.3-1.2-18.6-2.4-28-3.6C1404.4,172.3,1404.4,178.9,1408.6,179.5L1408.6,179.5
				z"/>
		</g>
	</g>
	<g>
		<g>
			<path class="st0" d="M959.1,299.4c4.2-0.2,8.3-0.1,12.5,0.2c4.3,0.3,4.2-6.3,0-6.6c-4.2-0.3-8.3-0.4-12.5-0.2
				C954.8,292.9,954.8,299.6,959.1,299.4L959.1,299.4z"/>
		</g>
	</g>
	<g>
		<g>
			<path class="st0" d="M959.1,316.3c4.3,0,4.3-6.6,0-6.6C954.8,309.7,954.8,316.3,959.1,316.3L959.1,316.3z"/>
		</g>
	</g>
	<g>
		<g>
			<path class="st0" d="M959.5,316.3c3.9,0.2,7.7,0,11.6-0.5c1.8-0.2,3.3-1.4,3.3-3.3c0-1.6-1.5-3.5-3.3-3.3
				c-3.9,0.5-7.7,0.6-11.6,0.5C955.3,309.4,955.3,316.1,959.5,316.3L959.5,316.3z"/>
		</g>
	</g>
	<g>
		<g>
			<path class="st0" d="M969.8,286.3c4.6,6.5,9.4,12.8,14.4,19c-0.2-1.3-0.3-2.7-0.5-4c-5.1,7-9.6,14.4-13.3,22.2
				c-1.8,3.8,3.9,7.2,5.7,3.4c3.7-7.8,8.1-15.2,13.3-22.2c0.9-1.3,0.3-3-0.5-4c-4.7-5.8-9.1-11.6-13.4-17.7
				C973.1,279.5,967.3,282.8,969.8,286.3L969.8,286.3z"/>
		</g>
	</g>
	<g>
		<g>
			<path class="st0" d="M1031.4,286.7c12.6,23.9,22.7,48.9,30.1,74.9c1.1,3.7,6.3,2.8,6.5-0.9c2.8-43.3,3.8-86.8,3-130.2
				c-1.1,1.1-2.2,2.2-3.3,3.3c71.4,0.1,142.9,2.3,214.3,0.8c25.4-0.5,50.8-1.4,76.2-2.4c4.3-0.2,4.3-6.8,0-6.6
				c-39.9,1.6-79.7,2.8-119.6,2.9c-31.5,0.1-63.1-0.5-94.6-0.8c-25.4-0.3-50.8-0.5-76.2-0.5c-1.8,0-3.4,1.5-3.3,3.3
				c0.9,43.4-0.1,86.9-3,130.2c2.2-0.3,4.3-0.6,6.5-0.9c-7.5-26.5-17.9-52.1-30.8-76.5C1035.1,279.5,1029.4,282.9,1031.4,286.7
				L1031.4,286.7z"/>
		</g>
	</g>
	<g>
		<g>
			<path class="st0" d="M892.2,315.1c0-7.9-0.1-15.8,0.1-23.7c-1.9,0.8-3.8,1.6-5.7,2.3c6.5,5.9,12.1,12.5,16.8,19.9
				c1.4,2.2,5.6,2.2,6.1-0.8c1.4-8,2-16,1.6-24.1c-0.2-4.3-6.8-4.3-6.6,0c0.3,7.5-0.1,14.9-1.4,22.4c2-0.3,4-0.5,6.1-0.8
				c-5-7.8-11-14.9-17.9-21.2c-2.1-1.9-5.6-0.6-5.7,2.3c-0.1,7.9-0.1,15.8-0.1,23.7C885.6,319.4,892.2,319.4,892.2,315.1
				L892.2,315.1z"/>
		</g>
	</g>
	<g>
		<g>
			<path class="st0" d="M915.8,301.9c0,4.5,0,9.1,0,13.6c0,4.3,6.6,4.3,6.6,0c0-4.5,0-9.1,0-13.6
				C922.5,297.6,915.8,297.6,915.8,301.9L915.8,301.9z"/>
		</g>
	</g>
	<g>
		<g>
			<path class="st0" d="M918.7,295.9c4.3,0,4.3-6.6,0-6.6C914.5,289.3,914.5,295.9,918.7,295.9L918.7,295.9z"/>
		</g>
	</g>
	<g>
		<g>
			<path class="st0" d="M1303.7,272.6c1.2-1.7,2.5-3.2,3.9-4.7c-1.8-0.5-3.7-1-5.5-1.5c1.5,4.5,2.2,9,2.1,13.7
				c-0.1,4.3,6.6,4.3,6.6,0c0.1-5.3-0.7-10.5-2.4-15.5c-0.8-2.2-3.8-3.4-5.5-1.5c-1.8,1.9-3.4,4-4.9,6.1
				C1295.5,272.7,1301.2,276,1303.7,272.6L1303.7,272.6z"/>
		</g>
	</g>
	<g>
		<g>
			<path class="st0" d="M1302.1,285.2c3.6-0.2,7.3-0.4,10.9-0.6c4.2-0.2,4.3-6.9,0-6.6c-3.6,0.2-7.3,0.4-10.9,0.6
				C1297.9,278.7,1297.8,285.4,1302.1,285.2L1302.1,285.2z"/>
		</g>
	</g>
	<g>
		<g>
			<path class="st0" d="M1086.7,337.2c68.6-0.4,137.2-0.9,205.8-1.3c19.9-0.1,39.8-0.2,59.6-0.4c4.3,0,4.3-6.7,0-6.6
				c-68.6,0.4-137.2,0.9-205.8,1.3c-19.9,0.1-39.8,0.2-59.6,0.4C1082.4,330.6,1082.4,337.2,1086.7,337.2L1086.7,337.2z"/>
		</g>
	</g>
	<g>
		<g>
			<path class="st0" d="M837.6,396.6c0-3.9-0.1-7.9,0-11.8c0-3.5-0.7-8.2,0.2-11.6c-0.8,0.8-1.5,1.5-2.3,2.3c2.4-0.8,6.2-0.7,6.8,2
				c0.8,3.6-3.9,4.4-6.7,5c-4.2,0.9-2.4,7.3,1.8,6.4c5.4-1.1,11.1-3.7,12.2-9.8c0.9-4.9-2.7-9-7.3-10.1c-4.3-1.1-10.3-1.1-11.1,4
				c-1.2,7.5-0.2,16.1-0.1,23.6C831,400.9,837.6,400.9,837.6,396.6L837.6,396.6z"/>
		</g>
	</g>
	<g>
		<g>
			<path class="st0" d="M926.9,300.5c0,10.1,0,20.2,0,30.3c0,4.3,6.6,4.3,6.6,0c0-10.1,0-20.2,0-30.3
				C933.6,296.2,926.9,296.2,926.9,300.5L926.9,300.5z"/>
		</g>
	</g>
	<g>
		<g>
			<path class="st0" d="M930.3,303.9c2.2-0.5,4.5-1.1,6.7-1.3c2.1-0.1,3,0.7,3.2,2.8c0.1,1.1,0.5,0.7-0.5,1.6
				c-0.7,0.7-1.7,1.2-2.6,1.7c-1.8,1-3.7,1.6-5.7,2.1c-4.2,1-2.4,7.4,1.8,6.4c3.8-0.9,7.3-2.5,10.4-4.9c3.2-2.4,3.8-4.8,3-8.7
				c-0.7-3.3-2.5-6.4-5.9-7.4c-3.8-1.1-8.5,0.3-12.2,1.2C924.4,298.5,926.1,304.9,930.3,303.9L930.3,303.9z"/>
		</g>
	</g>
	<g>
		<g>
			<path class="st0" d="M1159.2,266.2c-0.4,9.5-0.2,19,0.8,28.5c0.4,4.2,7.1,4.3,6.6,0c-1-9.5-1.2-19-0.8-28.5
				C1166,262,1159.4,262,1159.2,266.2L1159.2,266.2z"/>
		</g>
	</g>
	<g>
		<g>
			<path class="st0" d="M1162.9,269c1.7-0.1,8.3-1.7,8.8,0.9c0.6,3.3-5.2,5.4-7.6,5.7c-1.8,0.2-3.3,1.4-3.3,3.3
				c0,1.6,1.5,3.6,3.3,3.3c6.4-0.8,14.4-4.9,14.2-12.5c-0.1-3.2-2-6-4.9-7.2c-3.3-1.3-7.1-0.6-10.5-0.3
				C1158.7,262.7,1158.6,269.3,1162.9,269L1162.9,269z"/>
		</g>
	</g>
	<g>
		<g>
			<path class="st0" d="M1280.6,291.5c0.4-7-0.2-13.9-1.7-20.7c-0.5,1.2-1,2.5-1.5,3.7c2-1,7.1-2.9,6.6,0.9
				c-0.3,2.3-3.5,4.4-5.8,4.7c-4.2,0.5-4.2,7.2,0,6.6c6.2-0.7,14.5-6.4,12.8-13.6c-1.9-8-11.3-7.2-17-4.4c-1.4,0.7-1.8,2.4-1.5,3.7
				c1.3,6.3,1.8,12.6,1.4,19C1273.8,295.7,1280.4,295.7,1280.6,291.5L1280.6,291.5z"/>
		</g>
	</g>
	<g>
		<g>
			<path class="st0" d="M656.1,278.4c4.1-6.2,8.6-12.2,13.3-18c2.7-3.3-2-8-4.7-4.7c-5.1,6.2-9.9,12.6-14.4,19.3
				C648,278.6,653.7,282,656.1,278.4L656.1,278.4z"/>
		</g>
	</g>
	<g>
		<g>
			<path class="st0" d="M651,260.5c1,4.2,3.7,7.3,6.5,10.5c3.7,4.1,7.5,8.1,11.3,12.1c3,3.1,7.7-1.6,4.7-4.7
				c-3.1-3.2-6.2-6.5-9.2-9.8c-2.7-3-5.9-5.9-6.9-9.9C656.4,254.6,650,256.4,651,260.5L651,260.5z"/>
		</g>
	</g>
	<g>
		<g>
			<path class="st0" d="M649.1,272c7.1,0.3,14.1-0.2,21.2-1.3c4.2-0.7,2.4-7.1-1.8-6.4c-6.4,1.1-12.9,1.4-19.4,1.1
				C644.8,265.2,644.8,271.8,649.1,272L649.1,272z"/>
		</g>
	</g>
	<g>
		<g>
			<path class="st0" d="M857.6,386.5c2.3,0,4.5,0,6.8,0c4.3,0,4.3-6.6,0-6.6c-2.3,0-4.5,0-6.8,0
				C853.3,379.9,853.3,386.5,857.6,386.5L857.6,386.5z"/>
		</g>
	</g>
	<g>
		<g>
			<path class="st0" d="M857.6,397.2c2.2,0,4.4,0,6.5,0c4.3,0,4.3-6.6,0-6.6c-2.2,0-4.4,0-6.5,0
				C853.3,390.6,853.3,397.2,857.6,397.2L857.6,397.2z"/>
		</g>
	</g>
	<g>
		<g>
			<path class="st0" d="M878.2,368.7c-13-1.7-8.5,37.4,8.1,27.3c6.6-4,6.6-13.8,4.1-20.3c-2.4-6.2-9.9-10.7-15.9-6.1
				c-3.3,2.6,0,8.3,3.4,5.7c6.4-4.9,8.8,9.8,6.4,13.5c-5.9,9-8.1-13.7-6-13.5C882.4,375.9,882.4,369.2,878.2,368.7L878.2,368.7z"/>
		</g>
	</g>
	<g>
		<g>
			<path class="st0" d="M881.4,374.7c-1.5,4.3-3.5,8.4-6,12.3c-2.3,3.6,3.5,7,5.7,3.4c2.8-4.4,4.9-9,6.7-13.9
				C889.2,372.5,882.8,370.7,881.4,374.7L881.4,374.7z"/>
		</g>
	</g>
	<g>
		<g>
			<path class="st0" d="M544.7,417.3c3.4-1.8,6.4-4.9,9-7.6c3-3.1-1.7-7.8-4.7-4.7c-2.2,2.3-4.8,5.1-7.7,6.6
				C537.5,413.5,540.9,419.3,544.7,417.3L544.7,417.3z"/>
		</g>
	</g>
	<g>
		<g>
			<path class="st0" d="M174.6,191.2c-22.6-0.5-45.1-1-67.7-0.7c-2.4,0-4.5,2.9-2.9,5.1c19.9,28.2,36,59.1,58.5,85.4
				c-0.2-1.4-0.4-2.8-0.5-4.1c-22.8,34.1-44.5,68.9-65.1,104.4c-1.3,2.3,0.4,5,2.9,5.1c25.7,1.2,51.5,1.4,77.2,0.8
				c4.4-0.1,4.4-6.9,0-6.8c-25.7,0.6-51.5,0.3-77.2-0.8c1,1.7,2,3.4,2.9,5.1c20.6-35.5,42.3-70.3,65.1-104.4c0.9-1.3,0.4-3-0.5-4.1
				c-22.1-25.9-37.9-56.4-57.5-84.1c-1,1.7-2,3.4-2.9,5.1c22.6-0.2,45.1,0.3,67.7,0.7C179,198.1,179,191.3,174.6,191.2L174.6,191.2z
				"/>
		</g>
	</g>
	<g>
		<g>
			<path class="st0" d="M128.5,417.8c3.1,0,6.2,0,9.3,0c4.3,0,4.3-6.6,0-6.6c-3.1,0-6.2,0-9.3,0
				C124.3,411.1,124.2,417.8,128.5,417.8L128.5,417.8z"/>
		</g>
	</g>
	<g>
		<g>
			<path class="st0" d="M129.1,426c2.3,0,4.7,0,7,0c4.3,0,4.3-6.6,0-6.6c-2.3,0-4.7,0-7,0C124.8,419.3,124.8,426,129.1,426
				L129.1,426z"/>
		</g>
	</g>
	<g>
		<g>
			<path class="st0" d="M152.2,397.3c-6.7,1.4-6.6,10.7-6.6,16c0.1,5.5,1.9,13.5,9,12.7c7.2-0.8,8.8-9.9,9-15.7
				c0.2-6.4-3.5-12.9-10.5-12.9c-4.3,0-4.3,6.6,0,6.6c3.3,0,3.9,3.7,3.9,6.3c0,1.9-0.6,9.1-3.1,8.2c-2.2-0.8-1.6-4.6-1.6-6.6
				c0-1.4-0.2-7.8,1.7-8.1C158.1,402.9,156.3,396.4,152.2,397.3L152.2,397.3z"/>
		</g>
	</g>
	<g>
		<g>
			<path class="st0" d="M151.3,417.3c3.4-1.8,6.4-4.9,9-7.6c3-3.1-1.7-7.8-4.7-4.7c-2.2,2.3-4.8,5.1-7.7,6.6
				C144.2,413.5,147.5,419.3,151.3,417.3L151.3,417.3z"/>
		</g>
	</g>
	<g>
		<g>
			<path class="st0" d="M1149.7,352.9c-0.3,7.4-0.4,15.6,1.4,22.8c1.6,6.3,9.4,4.2,14.5,4.2c4.3,0,4.3-6.6,0-6.6
				c-2.2,0-4.5,0.2-6.7,0c-0.7-0.1-1.4-0.1-1.5-0.2c-0.7-0.7-0.6-4.3-0.7-5.2c-0.5-5-0.6-9.9-0.4-14.9
				C1156.5,348.6,1149.9,348.6,1149.7,352.9L1149.7,352.9z"/>
		</g>
	</g>
	<g>
		<g>
			<path class="st0" d="M1172.8,345.5c-3.8,14-1,29.1,7.9,40.6c2.6,3.3,8.3,0,5.7-3.4c-7.8-10.2-10.6-23-7.2-35.5
				C1180.3,343.2,1173.9,341.4,1172.8,345.5L1172.8,345.5z"/>
		</g>
	</g>
	<g>
		<g>
			<path class="st0" d="M1247.9,348.5c3.8,2.2,3.6,11.8,3.6,15.4c0.1,5.9-1.3,11.3-4.7,16.2c-2.5,3.5,3.3,6.8,5.7,3.4
				c4.9-6.8,6.2-15.1,5.4-23.3c-0.5-6-0.9-14-6.7-17.4C1247.6,340.7,1244.2,346.4,1247.9,348.5L1247.9,348.5z"/>
		</g>
	</g>
	<g>
		<g>
			<path class="st0" d="M1034,221.8c-8.7-1-17-0.6-25.7,0.2c-1.8,0.2-3.4,1.4-3.3,3.3c0.9,52.4,3.8,104.8,8.6,157.1
				c0.2,2.3,1.9,3.5,4.2,3.2c5.8-0.9,11.5-1.7,17.3-2.6c4.2-0.6,2.4-7-1.8-6.4c-5.8,0.9-11.5,1.7-17.3,2.6c1.4,1.1,2.8,2.1,4.2,3.2
				c-4.9-52.2-7.8-104.6-8.6-157.1c-1.1,1.1-2.2,2.2-3.3,3.3c8.7-0.8,17-1.1,25.7-0.2C1038.3,228.9,1038.2,222.3,1034,221.8
				L1034,221.8z"/>
		</g>
	</g>
	<g>
		<g>
			<path class="st0" d="M1379.8,233.4c2.2,1.5,6.3,0.7,8.8,0.6c4-0.2,9,0.3,12.9-0.6c0.2,0,1.1,0.1,1.1,0c-1.7-1.9-2.4-1.7-1.8,0.5
				c0,0.9,0,1.7,0.1,2.6c0.1,3.7,0.1,7.5,0.2,11.2c0.1,8.3,0,16.5-0.2,24.8c-0.9,32.9-3.7,65.9-10.1,98.3c0.8-0.8,1.5-1.5,2.3-2.3
				c-8.4,2.5-16.9,4.3-25.6,5.3c-4.2,0.5-4.2,7.1,0,6.6c9.3-1,18.4-2.8,27.3-5.5c1.1-0.3,2.1-1.2,2.3-2.3
				c6.8-34.1,9.7-68.9,10.5-103.6c0.2-8.8,0.2-17.6,0.1-26.5c-0.1-3.7,0.6-8.4-0.3-12c-0.4-1.7-0.9-2.8-2.7-3.4
				c-3.2-1.2-7.9-0.2-11.1,0c-2.3,0.1-4.5,0.3-6.8,0.4c-1,0-2,0.1-3.1,0.1c-0.7,0-1.4-0.4-0.6,0.2
				C1379.6,225.2,1376.3,231,1379.8,233.4L1379.8,233.4z"/>
		</g>
	</g>
	<g>
		<g>
			<path class="st0" d="M118.7,160.6c2.3,5.4,4.6,10.7,6.9,16.1c1.1,2.5,4.5,1.8,5.7,0c2.9-4.3,6-8.3,9.6-12.1c-1.6,0-3.1,0-4.7,0
				c3.7,4.5,7.4,8.9,11.1,13.4c1.7,2.1,4.8,0.7,5.5-1.5c2.2-6.4,4.9-12.7,8.1-18.7c2-3.8-3.8-7.1-5.7-3.4
				c-3.4,6.6-6.3,13.3-8.7,20.3c1.8-0.5,3.7-1,5.5-1.5c-3.7-4.5-7.4-8.9-11.1-13.4c-1.1-1.4-3.6-1.2-4.7,0
				c-3.9,4.2-7.4,8.7-10.6,13.4c1.9,0,3.8,0,5.7,0c-2.3-5.4-4.6-10.7-6.9-16.1C122.7,153.4,117,156.7,118.7,160.6L118.7,160.6z"/>
		</g>
	</g>
	<g>
		<g>
			<path class="st0" d="M119.5,402.3c-3.5-4.7-9.8-5.9-14.9-2.7c-5.9,3.7-7.9,12.1-7.4,18.7c0.5,6,3.6,12.3,10.1,13.2
				c5.7,0.8,10.9-2.7,11.5-8.5c0.4-4.3-6.2-4.2-6.6,0c-0.3,3-4.9,2-6.2,0.6c-2-1.9-2.2-5.5-2.1-8.1c0.1-2.7,0.7-5.8,2.2-8.1
				c1.5-2.2,5.6-4.7,7.8-1.8C116.2,409,122,405.7,119.5,402.3L119.5,402.3z"/>
		</g>
	</g>
	<g>
		<g>
			<path class="st0" d="M218.1,276.3c-13.3-10.4-30.1,2.9-27.8,18.4c1,6.6,5.6,13.1,12.6,14.1c6.6,1,13.3-2.9,14.9-9.5
				c1-4.2-5.4-5.9-6.4-1.8c-0.9,3.8-5.1,5.8-8.7,4.5c-3.8-1.4-5.7-5.8-5.9-9.6c-0.4-8.3,8.6-17.7,16.7-11.4
				C216.7,283.6,221.4,278.9,218.1,276.3L218.1,276.3z"/>
		</g>
	</g>
	<g>
		<g>
			<path class="st0" d="M225.6,271.9c4.8,1.8,8.7,5.3,11.3,9.8c2.1,3.7,7.9,0.4,5.7-3.4c-3.5-6-8.8-10.4-15.3-12.8
				C223.3,264,221.6,270.4,225.6,271.9L225.6,271.9z"/>
		</g>
	</g>
	<g>
		<g>
			<path class="st0" d="M238.3,262.4c-5.3,5.6-9.7,11.9-13,18.9c-1.8,3.8,3.9,7.2,5.7,3.4c3.1-6.5,7-12.4,12-17.6
				C246,264,241.3,259.3,238.3,262.4L238.3,262.4z"/>
		</g>
	</g>
	<g>
		<g>
			<path class="st0" d="M223.4,279.7c6.8-0.9,13.6-1.7,20.3-2.6c4.2-0.5,4.2-7.2,0-6.6c-6.8,0.9-13.6,1.7-20.3,2.6
				C219.2,273.6,219.2,280.2,223.4,279.7L223.4,279.7z"/>
		</g>
	</g>
	<g>
		<g>
			<path class="st0" d="M246.4,296.8c-2.8,0-6-0.5-8.7,0.4c-1,0.3-2.1,1.2-2.3,2.3c-0.7,4.3,0.1,9.3,0.3,13.7
				c0.2,5.3,0.4,10.7,0.6,16c0.1,1.7,1.5,3.5,3.3,3.3c2.6-0.2,5.2-0.3,7.8-0.2c4.3,0.2,4.3-6.5,0-6.6c-2.6-0.1-5.2,0-7.8,0.2
				c1.1,1.1,2.2,2.2,3.3,3.3c-0.2-4.7-0.4-9.4-0.6-14.2c-0.2-4.3-1.3-9.6-0.6-13.8c-0.8,0.8-1.5,1.5-2.3,2.3c2-0.7,4.9-0.1,6.9-0.1
				C250.7,303.4,250.7,296.8,246.4,296.8L246.4,296.8z"/>
		</g>
	</g>
	<g>
		<g>
			<path class="st0" d="M250.4,311.4c3.3,2.9,6.4,6.1,9,9.6c1.1,1.4,2.9,2.2,4.5,1.2c1.4-0.8,2.3-3.1,1.2-4.5c-3-4-6.2-7.7-10-11
				C251.9,303.9,247.2,308.6,250.4,311.4L250.4,311.4z"/>
		</g>
	</g>
	<g>
		<g>
			<path class="st0" d="M260.8,305c-4.2,3.4-7.6,7.5-10.4,12.1c-2.2,3.7,3.5,7,5.7,3.4c2.5-4.1,5.6-7.7,9.4-10.7
				C268.8,307,264.1,302.3,260.8,305L260.8,305z"/>
		</g>
	</g>
	<g>
		<g>
			<path class="st0" d="M270,320.7c-0.1,0.2-0.1,0.3-0.2,0.4c0.2-0.4,0.2-0.5,0-0.1c-0.1,0.2-0.3,0.5-0.4,0.7
				c-0.1,0.2-0.3,0.5-0.5,0.7c-0.2,0.3-0.2,0.3,0.1-0.1c-0.1,0.1-0.2,0.2-0.3,0.4c-1.1,1.3-1.4,3.4,0,4.7c1.2,1.1,3.5,1.4,4.7,0
				c1.3-1.5,2.2-3.1,2.9-5c0.6-1.6-0.7-3.7-2.3-4.1C272.2,318,270.6,319,270,320.7L270,320.7z"/>
		</g>
	</g>
	<g>
		<g>
			<path class="st0" d="M276.1,308.6c2,2.4,4.8,7.8,8.7,6.6c1.7-0.5,3.2-2.1,4.4-3.3c1.5-1.3,2.9-2.7,4.2-4.2
				c2.9-3.2-1.8-7.9-4.7-4.7c-1,1.1-2.1,2.3-3.3,3.3c-0.7,0.6-2,2.3-2.9,2.5c0.9,0.1,1.7,0.2,2.6,0.3c-0.5-0.3-1.4-1.7-1.9-2.3
				c-0.8-1-1.7-2-2.5-3.1C278.1,300.6,273.5,305.3,276.1,308.6L276.1,308.6z"/>
		</g>
	</g>
	<g>
		<g>
			<path class="st0" d="M280.7,312.6c0,2,0,3.9,0,5.9c0,1.8,1.5,3.3,3.3,3.3c1.8,0,3.3-1.5,3.3-3.3c0-2,0-3.9,0-5.9
				c0-1.8-1.5-3.3-3.3-3.3C282.2,309.3,280.7,310.8,280.7,312.6L280.7,312.6z"/>
		</g>
	</g>
	<g>
		<g>
			<path class="st0" d="M294.6,319.7c-0.1,0.4-0.3,0.9-0.4,1.3c0,0.1-0.4,1-0.2,0.4c-0.3,0.7-0.7,1.4-1.1,2.1
				c-0.9,1.5-0.4,3.7,1.2,4.5c1.6,0.8,3.6,0.4,4.5-1.2c1-1.7,1.7-3.5,2.3-5.4c0.5-1.7-0.6-3.7-2.3-4.1
				C296.9,317,295.1,317.9,294.6,319.7L294.6,319.7z"/>
		</g>
	</g>
	<g>
		<g>
			<path class="st0" d="M304.8,307.2c2.4,0,5.5-0.6,7.8,0c-0.8-0.8-1.5-1.5-2.3-2.3c-0.3-0.8,0.2-0.9-0.4,0
				c-0.3,0.5-0.6,1.1-0.8,1.6c-0.6,1.2-1.3,2.3-2,3.5c-1.2,2.2-2.2,4.5-2.7,6.9c-0.4,2.1,0.9,4.2,3.2,4.2c2.2,0,4.4,0,6.6,0
				c4.3,0,4.3-6.6,0-6.6c-2.2,0-4.4,0-6.6,0c1.1,1.4,2.1,2.8,3.2,4.2c0.5-2.5,1.6-4.7,2.8-6.9c1.1-2,2.7-4.2,3.2-6.4
				c1.3-6.4-8.4-4.8-12-4.8C300.6,300.6,300.6,307.2,304.8,307.2L304.8,307.2z"/>
		</g>
	</g>
	<g>
		<g>
			<path class="st0" d="M317,300c2.3-0.1,5.3-0.8,7.6-0.4c-0.8-0.8-1.5-1.5-2.3-2.3c0.7,2.2,0.1,5.2,0.1,7.5c0,2.5,0,5.1,0,7.6
				c0,2.5,0.1,5.1,0,7.6c-0.1,3.1-0.4,2.8-3.6,3.2c-4.2,0.5-4.2,7.2,0,6.6c2.6-0.3,6.2-0.4,8.4-2.1c2.4-1.9,1.9-5,1.9-7.8
				c0-4.4,0-8.9,0-13.3c0-3.5,0.7-7.7-0.4-11.2c-0.3-1-1.2-2.1-2.3-2.3c-3-0.6-6.3,0-9.3,0.1C312.8,293.6,312.7,300.2,317,300
				L317,300z"/>
		</g>
	</g>
	<g>
		<g>
			<path class="st0" d="M318.4,330.2c4.3,0,4.3-6.6,0-6.6C314.1,323.5,314.1,330.2,318.4,330.2L318.4,330.2z"/>
		</g>
	</g>
	<g>
		<g>
			<path class="st0" d="M348.8,297.2c7.6-0.4,15.2-0.8,22.8-1.2c4.3-0.2,4.3-6.9,0-6.6c-7.6,0.4-15.2,0.8-22.8,1.2
				C344.6,290.8,344.6,297.4,348.8,297.2L348.8,297.2z"/>
		</g>
	</g>
	<g>
		<g>
			<path class="st0" d="M348.8,312.1c7,0,13.9,0,20.9,0c4.3,0,4.3-6.6,0-6.6c-7,0-13.9,0-20.9,0
				C344.6,305.5,344.5,312.1,348.8,312.1L348.8,312.1z"/>
		</g>
	</g>
	<g>
		<g>
			<path class="st0" d="M371.4,282.5c2.5,3,5,5.9,7.5,8.9c1.2,1.4,2.9,2.9,3.8,4.5c1.5,2.7-0.2,3.7-1.5,5.9
				c-3.6,6.1-6.3,12.6-8.2,19.4c-1.2,4.1,5.2,5.9,6.4,1.8c1.4-4.8,3.1-9.5,5.4-13.9c1.8-3.4,5.5-7.2,5.8-11.1
				c0.3-3.4-2.4-5.8-4.5-8.2c-3.3-4-6.7-7.9-10-11.9C373.3,274.5,368.7,279.2,371.4,282.5L371.4,282.5z"/>
		</g>
	</g>
	<g>
		<g>
			<path class="st0" d="M444.8,157.7c-4.8,0.7-9.6,1.4-14.5,2.1c-3.8,0.6-8.8,0.5-12.1,2.8c-2.1,1.4-3.1,3.6-3.4,6
				c-0.8,5-0.3,10.4-0.4,15.5c-0.3,20.9-0.5,41.7-0.7,62.6c-0.4,41.4-0.4,82.8,0.5,124.1c0.5,23.5,1.3,47,2.4,70.5
				c0.1,1.7,1.5,3.4,3.3,3.3c7.7-0.4,15.3-0.8,23-1.2c4.3-0.2,4.3-6.9,0-6.6c-7.7,0.4-15.3,0.8-23,1.2c1.1,1.1,2.2,2.2,3.3,3.3
				c-3.8-77.7-3.5-155.5-2.5-233.3c0.1-10.9,0.3-21.8,0.4-32.8c0-2.3-0.7-6,1.8-7.5c1.5-0.9,4.6-0.8,6.3-1
				c5.8-0.8,11.6-1.7,17.4-2.5C450.8,163.5,449,157.1,444.8,157.7L444.8,157.7z"/>
		</g>
	</g>
	<g>
		<g>
			<path class="st0" d="M1274.9,347.9c-4.8,9.8-9.1,19.8-12.9,30c-1.5,4,4.9,5.7,6.4,1.8c3.7-9.7,7.8-19.1,12.3-28.4
				C1282.5,347.4,1276.8,344,1274.9,347.9L1274.9,347.9z"/>
		</g>
	</g>
	<g>
		<g>
			<path class="st0" d="M1312.7,355.1c-3.2-4.6-9.7-5.9-14.9-3.9c-6,2.3-8.2,10-7.9,15.9c0.3,5.8,3.6,11.9,9.4,13.9
				c5.7,2,11.5-1,13.4-6.7c1.3-4.1-5.1-5.8-6.4-1.8c-1.1,3.3-5,2.6-7,0.8c-2.1-1.9-2.9-5-2.8-7.7c0.1-2.3,0.7-5.4,2.5-7.1
				c1.6-1.5,6.4-2.3,8,0C1309.4,362,1315.1,358.6,1312.7,355.1L1312.7,355.1z"/>
		</g>
	</g>
	<g>
		<g>
			<path class="st0" d="M1434.5,154.4c11.7-0.1,23.4-0.2,35.1-0.2c3.6,0,5.4,0.5,6.4,4.5c0.6,2.6,0.1,6.2,0.1,8.9
				c0.1,6.3,0.1,12.6,0.2,18.9c0.1,23.5,0.1,47-0.1,70.6c-0.4,47-1.4,94.1-3.1,141.1c-0.2,6.6-0.5,13.2-0.8,19.9
				c-0.1,3.1,0.5,6.8-1.9,8.9c-2.3,2-6,2-8.9,1.9c-11-0.2-21.4-4.3-32.4-2.1c-4.2,0.9-2.4,7.3,1.8,6.4c11.1-2.2,21.9,2.9,33,2.3
				c4.1-0.2,9.3-0.9,12.2-4.1c3-3.3,2.6-8.2,2.8-12.3c1.1-26.5,1.9-53,2.6-79.5c1.3-53,1.8-106,1.4-159c-0.1-7.3,0.1-14.6-0.2-21.9
				c-0.2-4.3-1.1-8.7-5.6-10.4c-5.5-2.1-13.3-0.7-19.1-0.6c-7.8,0.1-15.6,0.1-23.4,0.2C1430.2,147.8,1430.2,154.4,1434.5,154.4
				L1434.5,154.4z"/>
		</g>
	</g>
</g>
</svg>
